<svg width="52" height="52" viewBox="0 0 52 52" fill="none" xmlns="http://www.w3.org/2000/svg">
<rect x="0.5" y="0.5" width="51" height="51" stroke="#272727" stroke-opacity="0.3"/>
<path d="M28.043 35.8633C27.9453 35.8672 27.8828 35.875 27.8203 35.875C26.4844 35.875 25.1523 35.8711 23.8164 35.8789C23.6289 35.8789 23.5781 35.8281 23.5781 35.6406C23.582 32.5313 23.582 29.418 23.582 26.3086C23.582 26.2266 23.582 26.1445 23.582 26.0391C22.8555 26.0391 22.1484 26.0391 21.4297 26.0391C21.4297 24.9297 21.4297 23.8399 21.4297 22.7188C21.5039 22.7188 21.5742 22.7188 21.6406 22.7188C22.2266 22.7188 22.8125 22.7149 23.3984 22.7227C23.5469 22.7227 23.5859 22.6797 23.5859 22.5352C23.5781 21.6641 23.5781 20.7891 23.5859 19.918C23.5898 19.3086 23.6875 18.7149 23.9688 18.1641C24.3711 17.3867 25.0078 16.8828 25.8125 16.5703C26.4688 16.3125 27.1602 16.2188 27.8555 16.207C28.9883 16.1914 30.1211 16.1992 31.2539 16.1953C31.3594 16.1953 31.4453 16.1914 31.4453 16.3399C31.4414 17.4141 31.4414 18.4883 31.4414 19.5625C31.4414 19.5742 31.4375 19.5859 31.4219 19.6367C31.3555 19.6367 31.2812 19.6367 31.207 19.6367C30.5039 19.6367 29.8008 19.6328 29.0977 19.6367C28.6914 19.6367 28.3633 19.8008 28.1563 20.1563C28.0938 20.2617 28.0547 20.3984 28.0547 20.5234C28.043 21.1875 28.0547 21.8516 28.0469 22.5156C28.0469 22.6719 28.0938 22.7149 28.2461 22.7149C29.2227 22.707 30.1992 22.7109 31.1758 22.7109C31.2539 22.7109 31.3281 22.7109 31.4609 22.7109C31.3242 23.8281 31.1914 24.9219 31.0547 26.0274C30.0391 26.0274 29.0508 26.0274 28.043 26.0274C28.043 29.3125 28.043 32.5781 28.043 35.8633Z" fill="#272727"/>
</svg>
