<svg width="52" height="52" viewBox="0 0 52 52" fill="none" xmlns="http://www.w3.org/2000/svg">
<rect x="0.5" y="0.5" width="51" height="51" stroke="#272727" stroke-opacity="0.3"/>
<path d="M21.0302 14.0834C19.7534 14.1433 18.8814 14.3459 18.1192 14.6437C17.3303 14.9493 16.6616 15.3595 15.9964 16.0232C15.3311 16.687 14.9214 17.3522 14.6161 18.1377C14.3207 18.8971 14.1205 19.7647 14.0641 21.0347C14.0077 22.3048 13.9952 22.713 14.0015 25.9527C14.0077 29.1924 14.0221 29.5985 14.084 30.8711C14.145 32.1402 14.348 33.0068 14.6475 33.7649C14.9555 34.5491 15.3676 35.2136 16.0355 35.8752C16.7034 36.5369 17.3721 36.9432 18.1641 37.2472C18.9273 37.5404 19.8002 37.7404 21.0775 37.796C22.3547 37.8515 22.7659 37.8644 26.0237 37.8582C29.2815 37.852 29.6916 37.8377 30.9715 37.7773C32.2515 37.717 33.1186 37.5137 33.8813 37.2174C34.6702 36.9105 35.3391 36.5016 36.0042 35.8373C36.6692 35.1731 37.0787 34.5074 37.3837 33.7214C37.6794 32.9627 37.8803 32.0949 37.9357 30.826C37.9916 29.5527 38.0048 29.1461 37.9986 25.9069C37.9923 22.6677 37.9777 22.2616 37.917 20.9894C37.8563 19.7172 37.653 18.8532 37.3537 18.0947C37.0453 17.3105 36.6337 16.6464 35.966 15.9843C35.2983 15.3222 34.6282 14.9154 33.8379 14.6129C33.0742 14.3192 32.2018 14.119 30.9245 14.0641C29.6472 14.0092 29.2361 13.9952 25.9771 14.0014C22.7181 14.0076 22.3101 14.0214 21.0302 14.0834ZM21.1703 35.6498C20.0003 35.5992 19.365 35.4059 18.9417 35.2442C18.381 35.0294 17.9817 34.7698 17.5597 34.3544C17.1378 33.939 16.8786 33.5406 16.6597 32.9844C16.4953 32.5635 16.2973 31.9327 16.2426 30.7695C16.1831 29.5123 16.1706 29.1349 16.1636 25.9498C16.1567 22.7648 16.1689 22.3878 16.2244 21.1302C16.2743 19.968 16.4699 19.3357 16.6324 18.915C16.8484 18.357 17.1085 17.9606 17.5273 17.5414C17.9461 17.1222 18.3457 16.864 18.9057 16.6464C19.3286 16.4823 19.9631 16.2871 21.1327 16.2318C22.3982 16.1721 22.7774 16.1602 25.9807 16.1533C29.184 16.1463 29.5642 16.1583 30.8302 16.2136C31.9992 16.2642 32.6355 16.4568 33.0581 16.6192C33.619 16.834 34.0181 17.0919 34.4398 17.509C34.8615 17.926 35.1214 18.3219 35.3403 18.8797C35.5057 19.2989 35.702 19.9295 35.7572 21.0929C35.8174 22.3511 35.8311 22.7283 35.8369 25.9126C35.8426 29.0969 35.8314 29.4751 35.7759 30.7323C35.7248 31.8954 35.5309 32.5272 35.3679 32.9486C35.1519 33.5057 34.8915 33.903 34.4725 34.322C34.0534 34.741 33.6543 34.9991 33.0941 35.2167C32.6717 35.3806 32.0364 35.5763 30.8679 35.6316C29.6023 35.6908 29.2231 35.7032 26.0186 35.7101C22.8141 35.7171 22.4361 35.7042 21.1706 35.6498M30.9531 19.5538C30.9535 19.8369 31.0385 20.1136 31.1971 20.3487C31.3558 20.5839 31.581 20.767 31.8443 20.8749C32.1077 20.9828 32.3973 21.0107 32.6765 20.9549C32.9558 20.8992 33.2122 20.7624 33.4132 20.5618C33.6142 20.3612 33.7509 20.1058 33.806 19.828C33.861 19.5502 33.8319 19.2624 33.7224 19.001C33.6129 18.7396 33.4279 18.5163 33.1908 18.3595C32.9536 18.2026 32.675 18.1192 32.3902 18.1198C32.0084 18.1205 31.6425 18.272 31.373 18.5409C31.1035 18.8098 30.9524 19.1742 30.9531 19.5538ZM19.8386 25.9417C19.8453 29.325 22.6091 32.0615 26.0117 32.0551C29.4142 32.0486 32.1687 29.3012 32.1622 25.9179C32.1557 22.5346 29.3911 19.7974 25.9881 19.804C22.5851 19.8107 19.8321 22.5589 19.8386 25.9417ZM22 25.9374C21.9985 25.1509 22.2315 24.3816 22.6698 23.7268C23.108 23.0719 23.7317 22.561 24.462 22.2586C25.1924 21.9562 25.9965 21.8758 26.7727 22.0277C27.549 22.1797 28.2625 22.557 28.823 23.112C29.3836 23.6671 29.766 24.3749 29.9218 25.146C30.0777 25.9171 30.0001 26.7169 29.6988 27.4441C29.3975 28.1713 28.886 28.7934 28.2291 29.2317C27.5721 29.6699 26.7992 29.9047 26.0081 29.9063C25.4827 29.9074 24.9623 29.8056 24.4766 29.6067C23.9909 29.4078 23.5493 29.1158 23.1771 28.7472C22.8049 28.3787 22.5094 27.9408 22.3074 27.4587C22.1054 26.9766 22.001 26.4597 22 25.9374Z" fill="#272727"/>
</svg>
