<svg width="412" height="439" viewBox="0 0 412 439" fill="none" xmlns="http://www.w3.org/2000/svg">
<path d="M215.191 164.174C215.191 164.174 215.191 150.024 233.835 152.383C233.835 152.383 224.957 147.666 218.742 152.383C213.416 157.099 215.191 164.174 215.191 164.174Z" fill="black"/>
<path d="M79.3539 133.52C79.3539 135.878 77.5783 137.45 74.9149 137.45C72.2516 137.45 70.476 135.878 70.476 133.52C70.476 133.52 72.2516 136.664 74.9149 136.664C78.4661 136.664 79.3539 133.52 79.3539 133.52Z" fill="#757575"/>
<path d="M94.449 291.518C90.0101 282.086 82.9078 272.653 79.3567 265.578L76.6933 267.151C76.6933 267.151 76.6933 267.15 77.5811 267.937C85.5712 275.797 98.0002 300.951 93.5612 308.812C93.5612 308.812 87.3467 290.732 82.02 289.946C82.02 289.946 91.7857 308.812 80.2444 319.817C80.2444 319.817 76.6933 307.24 76.6933 302.523C76.6933 302.523 66.0398 326.105 59.8253 327.677L57.162 319.031C57.162 319.031 45.6207 335.538 39.4062 337.11L39.4062 333.966L30.5283 337.11C30.5283 335.538 37.6306 330.036 42.9574 324.533C55.3864 312.742 56.2742 300.951 53.6108 287.588C52.723 285.23 51.8352 286.802 51.8352 286.802C50.9474 286.802 56.2742 302.523 45.6207 314.314C34.9673 326.891 22.5382 341.041 22.5382 341.041C22.5382 341.041 33.1917 341.827 36.7428 338.682L37.6306 342.613C37.6306 342.613 50.0597 336.324 52.723 330.036C55.3864 323.747 58.0497 326.105 58.0497 326.105C58.0497 326.105 59.8253 331.608 56.2742 336.324C55.3864 337.11 61.6009 334.752 63.3765 333.18C70.4788 327.677 76.6933 316.673 77.5811 308.026C77.5811 308.026 76.6933 319.031 81.1322 325.319C81.1322 325.319 86.459 321.389 88.2345 317.459C90.8979 312.742 90.8979 306.454 90.8979 306.454L94.449 315.1C92.6735 314.314 102.439 307.24 94.449 291.518Z" fill="#757575"/>
<path d="M41.1899 277.37C24.3219 290.733 6.56617 280.514 6.56617 280.514C6.56617 274.226 11.0051 267.937 21.6586 265.579C45.6288 260.862 37.6387 256.146 37.6387 256.146C37.6387 260.862 22.5463 263.221 22.5463 263.221C3.01502 265.579 1.23944 283.658 1.23944 283.658C1.23944 283.658 31.4242 292.305 42.0777 280.514C52.7311 268.723 54.5067 274.225 54.5067 274.225C55.3945 274.225 55.3945 266.365 41.1899 277.37Z" fill="#757575"/>
<path d="M94.4537 309.597L90.9025 306.453C95.3415 319.816 91.7903 341.04 84.688 349.686C81.1369 354.403 71.3712 357.547 63.3811 359.119C63.3811 356.761 63.3811 347.328 66.0445 342.612C66.0445 342.612 59.83 345.756 58.0544 347.328C56.2788 343.398 59.83 328.463 66.0445 326.104L64.2689 326.891C51.8399 332.393 55.391 350.472 55.391 351.259L56.2788 356.761L61.6055 349.686C59.83 355.189 59.83 363.836 59.83 364.622L61.6055 364.622C70.4834 363.836 80.2491 357.547 85.5758 353.617C96.2292 343.398 97.117 323.746 94.4537 309.597Z" fill="#757575"/>
<path d="M70.4843 226.275C70.4843 226.275 75.811 263.22 19.8804 275.797C19.8804 275.797 66.9331 260.862 70.4843 226.275Z" fill="#757575"/>
<path d="M39.4136 254.575C39.4136 254.575 43.8526 253.788 46.5159 252.216C52.7305 249.072 60.7205 246.714 64.2717 230.207C64.2717 230.207 60.7205 236.495 58.945 238.853C53.6182 245.142 44.7404 253.002 39.4136 254.575Z" fill="#757575"/>
<path d="M56.2707 271.867C56.2707 271.867 69.5874 267.151 68.6997 255.36C68.6997 255.36 60.7096 269.509 56.2707 271.867Z" fill="#757575"/>
<path d="M128.185 286.799C123.746 286.799 105.99 275.794 105.99 259.287C105.99 249.854 102.439 238.849 99.7758 232.561C98.0003 229.417 96.2247 227.058 94.4491 224.7C89.1224 218.412 82.0201 210.551 66.9277 205.835C66.9277 205.835 96.2247 223.128 100.664 240.422C105.103 257.715 105.103 267.148 105.103 267.148C105.103 267.148 107.766 280.511 121.971 287.585C121.971 287.585 111.317 292.302 103.327 280.511C103.327 280.511 102.439 283.655 104.215 289.158C104.215 289.158 92.6735 288.371 98.0003 256.143C100.664 240.422 91.7858 234.133 91.7858 234.133C96.2247 238.849 97.1125 253.785 95.3369 266.362C94.4491 268.72 94.4491 273.436 94.4491 275.008C92.6735 275.008 84.6835 276.581 86.459 263.217C87.3468 254.571 89.1224 237.277 82.0201 227.845C81.1323 226.272 77.5811 222.342 76.6934 221.556C76.6934 221.556 88.2346 241.994 81.1323 261.645C73.1422 282.869 49.1719 286.799 49.1719 286.799C58.9376 279.725 56.2743 275.794 56.2743 275.794C56.2743 275.794 55.3865 280.511 50.9475 282.083C41.1819 285.227 43.8452 291.516 43.8452 291.516C43.8452 291.516 83.7957 284.441 85.5712 250.64C85.5712 249.854 86.459 253.785 85.5712 257.715C84.6835 266.362 83.7957 271.078 84.6834 273.436C85.5712 279.725 94.4491 279.725 94.4491 279.725C94.4491 291.516 108.654 295.446 108.654 295.446L108.654 289.944C118.419 295.446 128.185 286.799 128.185 286.799Z" fill="#757575"/>
<path d="M29.642 183.828C21.6519 186.186 17.2129 189.331 13.6618 188.545C9.22284 187.759 10.9984 183.042 10.9984 183.042C10.9984 183.042 2.12053 190.117 12.774 192.475C15.4373 193.261 18.9885 190.903 21.6519 190.117C29.6419 185.4 37.632 184.614 43.8466 186.186C50.9489 186.973 55.3878 192.475 55.3878 192.475C55.3878 192.475 39.4076 189.331 29.642 196.405C18.1007 205.052 26.9786 214.485 26.9786 214.485L20.7641 210.554C20.7641 210.554 21.6519 218.415 19.8763 218.415C15.4373 218.415 18.1007 205.838 12.774 208.196C14.5496 208.196 15.4373 211.341 15.4373 215.271C14.5496 218.415 18.9885 222.345 21.6519 222.345C25.203 222.345 26.0908 219.201 26.0908 219.201C31.4175 220.773 34.0809 216.057 34.0809 216.057C20.7641 208.982 28.7542 199.55 35.8565 197.191C35.8565 197.191 34.0809 197.977 34.0809 199.55C33.1931 204.266 37.632 205.052 37.632 205.052C36.7443 202.694 38.5198 200.336 38.5198 200.336C47.3977 190.903 62.4901 198.763 62.4901 198.763C62.4901 198.763 51.8366 176.754 29.642 183.828Z" fill="#757575"/>
<path d="M63.3786 221.561C63.3786 211.342 52.7252 200.337 36.745 201.909C36.745 201.909 27.8671 202.695 26.0915 207.411C26.0915 207.411 36.745 199.551 50.0618 206.625C58.9397 211.342 59.8274 219.202 58.0519 224.705C56.2763 227.849 54.5007 230.993 54.5007 230.993L58.9397 229.421C58.9397 229.421 54.5007 239.64 40.2961 241.212C35.8572 241.998 32.306 240.426 29.6427 238.068C36.745 238.854 38.5206 236.496 38.5206 236.496C34.9694 237.282 34.0816 234.924 34.0816 234.924C33.1938 233.352 36.745 234.138 38.5206 233.352C48.2862 230.207 40.2961 220.775 40.2961 220.775C40.2961 220.775 28.7549 236.496 13.6625 215.272C13.6625 215.272 15.4381 223.919 26.9793 228.635C33.1938 230.993 39.4083 226.277 39.4083 226.277C39.4083 226.277 41.1839 228.635 34.9694 233.352C29.6427 237.282 18.9892 239.64 8.33577 229.421C-7.64441 213.7 15.4381 191.69 15.4381 191.69C15.4381 191.69 -4.98104 204.267 2.12126 224.705C6.5602 237.282 19.877 242.784 31.4183 243.57L30.5305 243.57C30.5305 243.57 20.7648 245.929 18.1014 248.287C18.1014 248.287 20.7648 251.431 25.2037 251.431C25.2037 251.431 18.1014 254.575 17.2136 258.506C17.2136 258.506 23.4282 261.65 27.8671 259.292C32.306 256.934 35.8572 255.361 38.5206 256.147L39.4083 256.934C38.5206 253.003 26.0915 254.575 26.0915 254.575L34.0816 249.859L27.8671 247.501C33.1938 243.57 40.2961 243.57 40.2961 243.57C53.6129 241.998 63.3786 230.993 63.3786 221.561Z" fill="#757575"/>
<path d="M95.3411 212.912C95.3411 212.912 82.0243 194.046 66.9319 192.474C66.9319 192.474 61.6052 191.688 62.4929 195.619C62.4929 195.619 43.8494 194.046 43.8494 203.479C43.8494 203.479 56.2784 194.833 71.3708 197.977C76.6975 198.763 89.1266 206.623 95.3411 212.912Z" fill="#757575"/>
<path d="M74.0337 136.664C74.524 136.664 74.9214 135.609 74.9214 134.306C74.9214 133.004 74.524 131.948 74.0337 131.948C73.5433 131.948 73.1459 133.004 73.1459 134.306C73.1459 135.609 73.5433 136.664 74.0337 136.664Z" fill="#757575"/>
<path d="M115.754 142.165C115.754 142.165 112.203 145.309 105.989 143.737C99.7743 142.165 93.5598 136.662 93.5598 136.662L92.672 139.807C88.2331 138.235 83.7942 131.946 83.7942 131.946C82.0186 133.518 77.5796 131.16 73.1407 130.374C68.7018 129.588 66.9262 133.518 66.9262 133.518C66.9262 133.518 70.4773 131.16 74.9163 132.732C78.4674 134.304 82.9064 133.518 82.9064 133.518C82.9064 133.518 88.2331 139.807 94.4476 141.379L95.3354 138.235C95.3354 138.235 100.662 143.737 103.325 144.523C106.877 145.309 113.979 146.095 117.53 143.737L115.754 142.165Z" fill="#757575"/>
<path d="M60.7186 151.597C60.7186 151.597 69.5965 153.169 70.4843 157.886C70.4843 162.602 55.3919 172.035 45.6262 172.821C35.8606 173.607 19.8804 188.542 19.8804 188.542C19.8804 180.682 34.085 172.821 40.2995 171.249C60.7186 166.532 67.8209 160.244 68.7087 158.672C69.5965 157.1 69.5965 154.741 63.382 153.169C57.1675 151.597 47.4018 146.095 47.4018 146.095C49.1774 145.309 54.5041 146.095 54.5041 146.095C54.5041 146.095 60.7186 150.811 65.1576 149.239C70.4843 146.881 75.811 149.239 75.811 149.239C78.4744 146.095 74.9232 144.523 74.9232 144.523C74.9232 144.523 75.811 143.737 77.5866 146.881C79.3622 150.025 74.9232 152.383 74.9232 152.383C74.9232 152.383 74.0354 151.597 70.4843 150.811C70.4843 150.811 68.7087 150.811 66.9331 150.811C64.2698 150.811 62.4942 151.597 60.7186 151.597Z" fill="#757575"/>
<path d="M59.8283 139.808C59.8283 139.808 64.2672 142.167 65.155 142.953C66.0428 144.525 74.0329 143.739 74.0329 143.739C74.0329 143.739 68.7062 143.739 67.8184 142.953C66.9306 142.167 62.4916 138.236 58.9405 138.236L59.8283 139.808Z" fill="#757575"/>
<path d="M58.9359 175.181C50.9458 178.325 47.3947 184.613 47.3947 184.613L50.9458 186.972C50.9458 186.972 51.8336 183.041 56.2725 180.683C59.8237 178.325 73.1405 170.464 73.1405 164.176C73.1405 164.176 66.926 172.036 58.9359 175.181Z" fill="#757575"/>
<path d="M137.954 258.504C128.188 250.644 129.964 245.927 129.964 245.927L128.188 245.141C128.188 245.141 124.637 251.43 134.403 260.076C145.944 270.295 145.056 282.086 137.066 291.519C137.066 291.519 146.832 286.016 146.832 276.584C145.944 275.798 146.832 265.579 137.954 258.504Z" fill="black"/>
<path d="M54.497 139.023C54.497 139.023 52.7215 139.023 50.9459 136.664C49.1703 134.306 39.4046 134.306 39.4046 134.306C40.2924 131.948 47.3947 128.018 51.8337 127.232C55.3848 126.446 58.936 127.232 59.8238 127.232C59.8238 124.873 59.8238 123.301 59.8238 123.301C42.068 125.659 32.3023 131.162 32.3023 139.809C32.3023 140.595 33.1901 141.381 33.1901 141.381C37.6291 135.878 46.507 136.664 48.2825 138.236C49.1703 139.809 52.7215 142.167 53.6092 141.381C55.3848 140.595 59.8238 139.809 59.8238 139.809C59.8238 139.809 59.8238 139.023 58.936 139.023L54.497 139.023Z" fill="#757575"/>
<path d="M58.0541 134.307C58.0541 134.307 61.6053 132.735 60.7175 131.163C59.8297 129.591 59.8297 129.591 59.8297 129.591C59.8297 129.591 58.9419 131.163 58.9419 132.735C58.9419 134.307 58.0541 134.307 58.0541 134.307Z" fill="#757575"/>
<path d="M44.7351 130.374C44.7351 130.374 46.5106 130.374 47.3984 132.732L47.3984 134.304C47.3984 134.304 44.7351 131.16 42.9595 131.16L44.7351 130.374Z" fill="#757575"/>
<path d="M117.535 143.738L115.759 143.738C115.759 145.31 116.647 148.454 118.423 150.026C123.749 157.887 135.291 155.529 135.291 155.529C135.291 155.529 132.627 159.459 127.301 158.673C125.525 158.673 121.086 156.315 121.086 159.459C121.086 162.603 117.535 164.961 117.535 164.961C113.984 164.961 109.545 162.603 107.769 158.673C107.769 160.245 107.769 161.817 107.769 161.817C109.545 165.747 118.423 167.319 118.423 167.319C118.423 167.319 122.862 164.175 121.974 161.817C121.086 159.459 124.637 159.459 124.637 159.459C136.178 162.603 138.842 152.384 138.842 152.384C121.974 159.459 117.535 143.738 117.535 143.738Z" fill="#757575"/>
<path d="M109.546 126.445C97.1169 114.654 85.5757 118.584 85.5757 118.584C85.5757 118.584 78.4734 120.942 67.82 119.37C57.1665 117.798 59.8299 128.803 59.8299 129.589C59.8299 129.589 61.6054 122.514 69.5955 124.087C69.5955 124.087 81.1368 123.301 86.4635 122.514C91.7902 121.728 98.8925 126.445 98.8925 126.445L98.0047 123.301C98.0047 123.301 102.444 124.873 110.434 129.589C123.751 138.236 145.945 132.733 145.945 132.733C145.945 132.733 142.394 139.022 132.628 137.45C126.414 136.664 121.087 134.305 115.76 137.45C115.76 137.45 119.312 139.808 122.863 140.594C122.863 140.594 121.087 142.166 118.424 142.166C115.76 142.166 109.546 140.594 105.995 138.236C105.995 138.236 108.658 142.952 118.424 144.524C126.414 142.166 127.302 139.808 127.302 139.808C123.751 139.808 120.199 137.45 120.199 137.45C124.638 135.878 131.741 138.236 131.741 138.236C150.384 140.594 150.384 129.589 150.384 129.589C150.384 129.589 118.424 135.092 109.546 126.445Z" fill="#757575"/>
<path d="M145.941 82.4261C145.941 83.2121 145.053 87.9285 138.839 89.5006C132.624 91.0728 127.298 96.5752 124.634 98.9334C124.634 95.7891 125.522 91.8588 127.298 91.0728C131.737 89.5006 133.512 82.4261 133.512 76.9236C133.512 71.4212 136.176 61.9884 136.176 61.9884L137.063 60.4163L135.288 60.4163C133.512 60.4163 101.552 65.9187 94.4495 83.2121C88.235 98.1473 87.3473 104.436 87.3473 106.008C86.4595 106.794 85.5717 107.58 85.5717 106.794C84.6839 106.794 84.6839 106.008 84.6839 105.222C82.9083 100.506 85.5717 96.5752 85.5717 96.5752L86.4595 94.217L83.7961 95.0031C83.7961 95.0031 74.0304 98.9334 72.2549 106.794C72.2549 107.58 72.2549 109.152 72.2549 110.724L74.0304 113.083C74.0304 112.296 74.0304 108.366 74.0304 107.58C74.9182 103.65 79.3572 100.506 82.0205 98.9334C81.1327 101.292 81.1327 103.65 82.0205 106.794C82.9083 108.366 83.7961 109.938 84.6839 109.938C87.3472 109.938 89.1228 108.366 89.1228 107.58C89.1228 107.58 89.1228 102.078 96.2251 85.5703C102.44 71.4212 127.298 65.1326 133.512 64.3466C132.624 65.9187 130.849 72.9933 130.849 76.9236C130.849 81.64 129.961 87.9285 125.522 89.5006C120.195 91.0728 121.971 101.292 121.971 104.436L123.747 102.078C123.747 102.078 130.849 93.431 138.839 91.0728C141.502 90.2867 144.166 89.5006 145.053 87.9285C145.941 92.6449 145.941 101.292 136.176 106.008L135.288 106.794C134.4 108.366 130.849 113.869 130.849 120.157C128.185 120.943 120.195 124.087 118.42 131.162L119.308 131.948C121.083 124.874 132.624 121.729 132.624 121.729L133.512 121.729L133.512 120.943C132.624 116.227 137.063 109.152 138.839 108.366C158.37 96.5752 145.941 83.2121 145.941 82.4261Z" fill="black"/>
<path d="M108.653 127.229C108.653 126.443 101.55 111.508 105.989 99.7167L108.653 95.7864C103.326 113.866 110.428 128.801 110.428 128.801L108.653 127.229Z" fill="black"/>
<path d="M110.428 91.0736L111.315 87.1432C111.315 86.3572 118.418 70.6359 133.51 61.2031L134.398 62.7753C121.081 71.422 111.315 91.0736 110.428 91.0736Z" fill="black"/>
<path d="M125.525 192.474C125.525 199.548 120.198 203.479 113.984 203.479C111.32 203.479 107.769 202.693 105.993 201.121C102.442 197.976 103.33 191.688 108.657 188.544C114.871 183.827 129.076 171.25 121.974 159.459C121.974 159.459 121.974 158.673 121.086 158.673L121.086 161.031C121.086 163.389 122.861 174.394 107.769 183.827C98.0033 190.902 98.0033 208.195 118.422 205.051C118.422 205.051 113.096 215.27 100.667 205.837C100.667 207.409 101.554 208.981 103.33 209.767C103.33 209.767 100.667 211.339 96.2278 209.767C90.0133 207.409 82.0232 198.762 84.6865 186.971C86.4621 179.111 90.901 177.539 95.34 175.18C105.993 171.25 108.657 161.817 106.881 154.743C105.993 148.454 101.555 144.524 101.555 144.524C102.442 149.24 105.106 153.957 101.555 156.315C99.7789 157.887 99.7789 161.817 99.7789 161.817C99.7789 161.817 101.554 159.459 102.442 158.673C103.33 157.887 105.106 156.315 105.106 156.315C105.993 164.176 99.7789 172.036 90.0133 172.036C86.4621 172.036 84.6865 169.678 85.5743 166.534C86.4621 164.962 89.1255 164.176 89.1255 164.176C89.1255 164.176 85.5743 161.817 82.911 164.962C80.2476 167.32 82.0232 170.464 83.7987 172.036C85.5743 173.608 89.1255 174.394 89.1255 174.394C83.7987 175.18 79.3598 174.394 76.6964 172.036C72.2575 168.106 72.2575 161.031 74.9209 157.887C81.1354 150.026 93.5644 151.599 96.2278 156.315C99.7789 162.603 91.7888 164.176 91.7888 164.176C98.0033 165.748 99.7789 161.817 99.7789 161.817C101.554 155.529 95.34 150.812 88.2377 150.026C80.2476 150.026 74.9209 153.171 72.2575 160.245C69.5941 168.106 76.6964 178.325 88.2377 176.753C80.2476 183.827 79.3598 193.26 87.3499 205.837C94.4522 216.842 106.881 212.911 106.881 212.911C120.198 216.842 122.861 204.265 122.861 204.265C133.515 201.121 125.525 192.474 125.525 192.474Z" fill="#757575"/>
<path d="M107.764 221.557C101.549 213.696 92.6712 207.408 85.5689 204.263C97.1102 212.124 107.764 226.273 110.427 228.631C127.295 242.781 148.602 245.139 148.602 245.139C148.602 245.139 142.387 250.641 124.632 241.995C126.407 245.925 125.519 249.855 125.519 249.855L118.417 247.497C118.417 247.497 121.968 257.716 120.193 261.646C120.193 262.432 116.641 264.004 116.641 264.004C113.978 239.636 101.549 229.417 92.6712 223.129C114.866 245.139 113.978 268.721 113.978 268.721C113.978 268.721 125.519 265.576 123.744 259.288C121.968 253.785 121.08 251.427 121.08 251.427L127.295 252.999C127.295 252.999 128.183 248.283 127.295 245.925C129.958 247.497 135.285 249.069 137.061 249.069C139.724 249.855 144.163 249.855 145.939 249.069C146.826 249.069 146.826 248.283 146.826 248.283C147.714 247.497 148.602 246.711 148.602 246.711C153.929 248.283 158.368 241.995 158.368 241.995C153.929 244.353 122.856 242.781 107.764 221.557Z" fill="#757575"/>
<path d="M147.722 76.9219C146.834 72.2055 151.273 61.2006 152.161 57.2703C142.395 59.6285 134.405 66.703 132.629 75.3497C132.629 76.9219 132.629 80.8522 133.517 79.2801C135.293 71.4194 141.507 61.9866 150.385 59.6285C148.609 65.917 145.946 74.5637 147.722 79.2801C147.722 79.2801 155.712 65.1309 166.365 65.1309C165.477 65.1309 152.161 61.9866 147.722 76.9219Z" fill="black"/>
<path d="M191.216 319.029L184.113 319.815C185.889 322.173 187.665 323.745 190.328 324.532L190.328 322.959C190.328 322.959 190.328 321.387 191.216 319.029Z" fill="black"/>
<path d="M221.408 319.029C221.408 321.387 221.408 322.959 221.408 322.959L221.408 324.532C224.071 323.745 225.847 321.387 227.623 319.815L221.408 319.029Z" fill="black"/>
<path d="M115.764 227.059C112.213 227.059 108.662 226.273 108.662 226.273L109.549 224.701C109.549 224.701 116.652 227.059 122.866 223.915C126.417 222.343 133.52 214.482 134.407 208.98C135.295 216.84 128.193 223.129 123.754 225.487C121.091 226.273 118.427 227.059 115.764 227.059Z" fill="black"/>
<path d="M140.615 194.832C140.615 194.832 138.839 201.907 132.625 206.623C121.971 214.484 126.41 218.414 126.41 218.414C126.41 212.126 133.513 207.409 133.513 207.409C141.503 202.693 142.39 193.26 142.39 193.26L140.615 194.832Z" fill="black"/>
<path d="M131.735 237.281C131.735 237.281 129.071 230.207 131.735 225.49C134.398 220.774 133.51 214.485 133.51 214.485L132.622 217.63C132.622 217.63 131.735 222.346 129.959 226.276C127.296 230.207 128.184 236.495 131.735 237.281Z" fill="black"/>
<path d="M146.833 384.273C146.833 384.273 129.965 391.348 123.751 386.631C120.2 384.273 119.312 381.129 119.312 379.557C121.087 381.129 124.639 383.487 128.19 382.701L127.302 381.129C127.302 381.129 123.751 373.268 124.639 368.552C125.526 363.835 121.087 358.333 120.2 357.547C118.424 355.975 119.312 350.472 121.975 347.328C130.853 337.109 137.068 326.89 134.404 312.741C132.629 305.667 137.955 290.731 139.731 285.229C137.068 287.587 132.629 289.159 128.19 293.09C122.863 297.806 115.761 301.736 116.648 316.672C117.536 323.746 116.648 330.821 111.322 333.179C113.097 331.607 113.985 326.104 112.21 322.174C109.546 311.955 113.097 303.308 113.097 303.308C108.658 305.667 99.7805 310.383 101.556 323.746C102.444 336.323 85.5759 348.9 85.5759 348.9C76.6981 353.617 74.9225 361.477 74.0347 361.477L73.1469 363.835L75.8103 363.835C79.3614 364.621 82.9126 363.835 86.4637 363.049C81.137 372.482 82.9126 387.417 82.9126 388.203L82.9126 390.562L85.5759 389.776C94.4538 386.631 100.668 372.482 100.668 371.696L101.556 368.552C100.668 374.054 100.668 381.915 103.332 388.203C105.995 394.492 111.322 399.208 118.424 399.994C120.2 400.78 122.863 400.78 124.639 400.78C128.19 400.78 131.741 399.994 134.404 398.422C142.394 393.706 145.058 385.059 145.058 384.273L145.945 381.915L146.833 384.273ZM100.668 372.482C99.7805 375.626 94.4538 384.273 89.1271 385.059C89.1271 379.557 87.3515 366.98 98.8927 356.761C98.8927 356.761 90.9027 360.691 82.0248 360.691C82.0248 358.333 85.5759 353.617 90.0149 350.472C94.4538 347.328 106.883 339.467 105.995 324.532C105.107 319.03 105.107 314.313 111.322 308.025C111.322 311.955 112.21 321.388 112.21 326.104C112.21 335.537 106.883 339.467 106.883 339.467L112.21 337.895C113.097 337.895 121.975 333.965 121.087 318.244C120.2 302.522 133.516 293.876 137.068 291.518C133.516 300.164 130.853 309.597 131.741 315.099C134.404 328.463 131.741 338.681 118.424 347.328C104.219 356.761 100.668 370.124 100.668 372.482ZM123.751 397.636C103.332 394.492 100.668 363.049 119.312 350.472C117.536 353.617 118.424 357.547 119.312 359.905C119.312 359.905 123.751 364.621 122.863 369.338C121.975 373.268 123.751 378.771 124.639 381.129C121.975 380.343 119.312 378.771 118.424 374.84C117.536 377.985 115.761 383.487 122.863 388.203C129.078 392.92 141.507 389.776 144.17 387.417C143.282 390.562 137.955 399.994 123.751 397.636Z" fill="black"/>
<path d="M164.597 347.328C169.036 358.333 165.485 363.05 165.485 363.05C163.709 356.761 158.382 353.617 158.382 353.617C157.495 368.552 148.617 377.199 144.178 378.771C144.178 375.627 142.402 369.338 137.963 363.05C135.3 359.119 136.188 352.831 138.851 348.114C146.841 332.393 162.821 341.04 162.821 341.04C162.821 341.04 159.27 334.751 147.729 337.109C143.29 337.896 138.851 342.612 136.188 347.328C133.524 352.045 131.749 359.905 135.3 363.836C140.627 370.91 140.627 381.129 140.627 381.129L140.627 382.701C140.627 382.701 161.046 377.199 159.27 357.547C164.597 360.691 163.709 370.91 163.709 370.91C176.138 356.761 164.597 347.328 164.597 347.328Z" fill="black"/>
<path d="M151.269 337.896C151.269 337.896 160.147 329.25 152.157 320.603C151.269 319.817 149.493 318.245 148.606 317.459C145.054 314.314 140.616 311.17 139.728 302.524C138.84 305.668 138.84 309.598 140.616 312.742C145.054 319.817 145.942 322.175 143.279 324.533C143.279 320.603 142.391 321.389 137.952 314.314C132.625 305.668 141.503 293.091 141.503 292.305L141.503 296.235C140.616 308.812 145.054 312.742 149.493 315.887C150.381 316.673 152.157 318.245 153.045 319.031C162.81 329.25 153.045 337.896 151.269 337.896Z" fill="black"/>
<path d="M123.741 347.326L124.629 344.968C124.629 344.968 132.619 339.466 141.497 337.108C149.487 334.749 151.262 324.531 150.374 322.172C153.926 326.889 152.15 336.321 142.384 338.68C132.619 341.038 123.741 347.326 123.741 347.326Z" fill="black"/>
<path d="M332.377 132.729C332.377 135.087 334.152 136.659 336.816 136.659C339.479 136.659 341.255 135.087 341.255 132.729C341.255 132.729 339.479 135.873 336.816 135.873C333.265 135.873 332.377 132.729 332.377 132.729Z" fill="#757575"/>
<path d="M317.279 290.728C321.718 281.295 328.82 271.862 332.371 264.788L335.035 266.36C335.035 266.36 335.035 266.36 334.147 267.146C326.157 275.006 313.728 300.16 318.167 308.021C318.167 308.021 324.381 289.942 329.708 289.156C329.708 289.156 319.942 308.021 331.484 319.026C331.484 319.026 335.035 306.449 335.035 301.733C335.035 301.733 345.688 325.315 351.903 326.887L354.566 318.24C354.566 318.24 366.107 334.747 372.322 336.319L372.322 333.175L381.2 336.319C381.2 334.747 374.097 329.245 368.771 323.742C356.342 311.951 355.454 300.16 358.117 286.797C359.005 284.439 359.893 286.011 359.893 286.011C360.781 286.011 355.454 301.733 366.107 313.524C376.761 326.101 389.19 340.25 389.19 340.25C389.19 340.25 378.536 341.036 374.985 337.892L374.097 341.822C374.097 341.822 361.668 335.533 359.005 329.245C356.342 322.956 353.678 325.314 353.678 325.314C353.678 325.314 351.903 330.817 355.454 335.533C356.342 336.319 350.127 333.961 348.352 332.389C341.249 326.887 335.035 315.882 334.147 307.235C334.147 307.235 335.035 318.24 330.596 324.528C330.596 324.528 325.269 320.598 323.493 316.668C320.83 311.951 320.83 305.663 320.83 305.663L317.279 314.31C319.055 313.524 309.289 306.449 317.279 290.728Z" fill="#757575"/>
<path d="M359.012 235.703C359.012 235.703 361.676 241.991 373.217 241.991C373.217 241.991 379.432 241.991 385.646 245.922L379.432 248.28L387.422 252.996C387.422 252.996 374.993 251.424 374.105 255.354L374.993 254.568C377.656 253.782 381.207 254.568 385.646 257.713C390.085 260.071 396.3 256.927 396.3 256.927C395.412 252.996 388.309 249.852 388.309 249.852C392.748 249.852 395.412 246.708 395.412 246.708C393.636 244.35 382.983 241.991 382.983 241.991C373.217 240.419 364.339 241.205 359.012 235.703Z" fill="#757575"/>
<path d="M369.658 276.577C386.526 289.94 404.282 279.721 404.282 279.721C404.282 273.433 399.843 267.144 389.189 264.786C365.219 260.07 373.209 255.353 373.209 255.353C373.209 260.07 388.301 262.428 388.301 262.428C407.833 264.786 409.608 282.866 409.608 282.866C409.608 282.866 379.424 291.512 368.77 279.721C358.117 267.93 356.341 273.433 356.341 273.433C356.341 273.433 356.341 265.572 369.658 276.577Z" fill="#757575"/>
<path d="M317.289 309.595L320.84 306.451C316.401 319.814 319.952 341.038 327.054 349.684C330.605 354.401 340.371 357.545 348.361 359.117C348.361 356.759 348.361 347.326 345.698 342.61C345.698 342.61 351.912 345.754 353.688 347.326C354.576 337.894 351.912 328.461 344.81 325.316L347.473 326.103C359.015 332.391 356.351 349.684 356.351 350.471L355.463 355.973L350.137 348.898C351.912 354.401 351.912 363.048 351.912 363.834L350.137 363.834C341.259 363.048 331.493 356.759 326.166 352.829C315.513 343.396 314.625 322.958 317.289 309.595Z" fill="#757575"/>
<path d="M341.249 226.269C341.249 226.269 335.923 263.214 391.853 275.791C391.853 275.005 344.8 260.07 341.249 226.269Z" fill="#757575"/>
<path d="M372.324 253.785C372.324 253.785 353.681 252.213 347.466 229.417C347.466 229.417 351.018 234.92 352.793 238.064C357.232 244.353 366.998 252.213 372.324 253.785Z" fill="#757575"/>
<path d="M355.464 271.077C355.464 271.077 342.147 266.361 343.035 254.57C343.035 254.57 351.025 268.719 355.464 271.077Z" fill="#757575"/>
<path d="M361.674 279.721C357.235 278.149 356.347 273.433 356.347 273.433C356.347 273.433 352.796 277.363 363.449 284.438C363.449 284.438 339.479 280.507 331.489 259.284C325.274 243.562 332.377 227.055 335.04 221.553C335.04 220.767 335.928 219.981 335.928 219.981C335.04 220.767 334.152 222.339 333.264 223.125C332.377 223.911 331.489 224.697 330.601 226.269C323.499 235.702 324.386 252.995 326.162 261.642C327.938 275.791 319.947 273.433 318.172 273.433C318.172 271.861 318.172 267.144 317.284 264.786C314.621 252.209 316.396 237.274 320.835 232.558C320.835 232.558 311.957 238.846 314.621 254.567C319.948 286.796 308.406 286.796 308.406 286.796C309.294 282.08 308.406 278.935 308.406 278.935C303.08 289.154 289.763 286.01 289.763 286.01C303.967 279.721 306.631 265.572 306.631 265.572C306.631 265.572 306.631 256.926 311.07 238.846C315.509 221.553 344.806 204.259 344.806 204.259C329.713 208.976 322.611 216.836 317.284 223.125C315.509 225.483 313.733 228.627 311.957 230.985C308.406 236.488 305.743 247.493 305.743 257.712C305.743 274.219 287.987 285.224 283.548 285.224C283.548 285.224 293.314 293.871 304.855 286.796L304.855 292.298C304.855 292.298 319.06 288.368 319.06 276.577C319.06 276.577 327.938 276.577 328.825 270.289C328.825 267.93 328.825 260.856 328.825 252.995L328.825 253.781C332.377 284.438 369.664 288.368 369.664 288.368C369.664 288.368 371.439 282.866 361.674 279.721Z" fill="#757575"/>
<path d="M382.093 183.038C390.083 185.396 394.522 188.54 398.073 187.754C402.512 186.968 400.737 182.251 400.737 182.251C400.737 182.251 409.615 189.326 398.961 191.684C396.298 192.47 392.747 190.112 390.083 189.326C382.093 184.61 374.103 183.824 367.889 185.396C360.786 186.182 356.347 191.684 356.347 191.684C356.347 191.684 372.327 188.54 382.093 195.615C393.634 204.261 384.756 213.694 384.756 213.694L390.971 209.764C390.971 209.764 390.083 217.624 391.859 217.624C396.298 217.624 393.634 205.047 398.961 207.406C397.186 207.406 396.298 210.55 396.298 214.48C397.186 217.624 392.747 221.555 390.083 221.555C386.532 221.555 385.644 218.41 385.644 218.41C380.318 219.983 377.654 215.266 377.654 215.266C390.971 208.192 382.981 198.759 375.879 196.401C375.879 196.401 377.654 197.187 377.654 198.759C378.542 203.475 374.103 204.261 374.103 204.261C374.991 201.903 373.215 199.545 373.215 199.545C364.337 190.112 349.245 197.973 349.245 197.973C349.245 197.973 359.898 175.963 382.093 183.038Z" fill="#757575"/>
<path d="M382.978 237.276C375.876 238.062 374.1 235.704 374.1 235.704C377.652 236.49 378.539 234.132 378.539 234.132C379.427 232.56 375.876 233.346 374.1 232.56C364.335 229.415 372.325 219.983 372.325 219.983C372.325 219.983 383.866 235.704 398.959 214.48C398.959 214.48 397.183 223.127 385.642 227.843C379.427 230.201 373.213 225.485 373.213 225.485C373.213 225.485 371.437 227.843 377.652 232.56C382.978 236.49 393.632 238.848 404.285 228.629C420.265 212.908 397.183 190.898 397.183 190.898C397.183 190.898 417.602 203.475 410.5 223.913C404.285 239.634 386.53 245.137 373.213 241.992L367.886 241.206C374.1 241.992 379.427 240.42 382.978 237.276Z" fill="#757575"/>
<path d="M372.329 241.207C361.675 241.207 348.358 234.133 348.358 221.556C348.358 211.337 359.012 200.332 374.992 201.904C374.992 201.904 383.87 202.69 385.646 207.406C385.646 207.406 374.992 199.546 361.675 206.62C352.797 211.337 351.91 219.197 353.685 224.7C355.461 227.844 357.236 230.988 357.236 230.988L352.797 228.63C352.797 228.63 357.236 238.849 373.217 241.207L372.329 241.207Z" fill="#757575"/>
<path d="M316.404 212.124C316.404 212.124 329.721 193.258 344.813 191.686C344.813 191.686 350.14 190.9 349.252 194.83C349.252 194.83 367.896 193.258 367.896 202.691C367.896 202.691 355.467 194.044 340.374 197.189C335.048 197.975 322.619 205.835 316.404 212.124Z" fill="#757575"/>
<path d="M337.7 136.659C338.19 136.659 338.588 135.603 338.588 134.301C338.588 132.998 338.19 131.942 337.7 131.942C337.21 131.942 336.812 132.998 336.812 134.301C336.812 135.603 337.21 136.659 337.7 136.659Z" fill="#757575"/>
<path d="M295.979 141.376C295.979 141.376 299.531 144.52 305.745 142.948C311.96 141.376 318.174 135.873 318.174 135.873L319.062 139.017C323.501 137.445 327.94 131.157 327.94 131.157C329.715 132.729 334.154 130.371 338.593 129.585C343.032 128.799 344.808 132.729 344.808 132.729C344.808 132.729 341.257 130.371 336.818 131.943C333.267 133.515 328.828 132.729 328.828 132.729C328.828 132.729 323.501 139.017 317.286 140.59L316.399 137.445C316.399 137.445 311.072 142.948 308.409 143.734C304.857 144.52 297.755 145.306 294.204 142.948L295.979 141.376Z" fill="#757575"/>
<path d="M351.021 150.808C351.021 150.808 342.143 152.38 341.255 157.096C341.255 161.813 356.348 171.246 366.113 172.032C375.879 172.818 391.859 187.753 391.859 187.753C391.859 179.892 377.655 172.032 371.44 170.46C351.021 165.743 343.919 159.455 343.031 157.882C342.143 156.31 342.143 153.952 348.358 152.38C354.572 150.808 364.338 145.305 364.338 145.305C362.562 144.519 357.235 145.305 357.235 145.305C357.235 145.305 351.021 150.022 346.582 148.45C341.255 146.092 335.929 148.45 335.929 148.45C333.265 145.305 336.816 143.733 336.816 143.733C336.816 143.733 335.929 142.947 334.153 146.092C332.377 149.236 336.816 151.594 336.816 151.594C336.816 151.594 337.704 150.808 341.255 150.022C341.255 150.022 343.031 150.022 344.806 150.022C347.47 150.022 349.245 150.808 351.021 150.808Z" fill="#757575"/>
<path d="M351.017 139.802C351.017 139.802 346.578 142.16 345.69 142.946C344.802 144.519 336.812 143.732 336.812 143.732C336.812 143.732 342.139 143.732 343.027 142.946C343.915 142.16 348.354 138.23 351.905 138.23L351.017 139.802Z" fill="#757575"/>
<path d="M352.799 174.39C360.789 177.535 364.341 183.823 364.341 183.823L360.789 186.181C360.789 186.181 359.902 182.251 355.463 179.893C351.912 177.535 338.595 169.674 338.595 163.385C338.595 163.385 344.809 172.032 352.799 174.39Z" fill="#757575"/>
<path d="M273.785 258.498C283.551 250.638 281.775 245.921 281.775 245.921L283.551 245.135C283.551 245.135 287.102 251.424 277.336 260.07C265.795 270.289 266.683 282.08 274.673 291.513C274.673 291.513 264.907 286.011 264.907 276.578C265.795 275.006 264.907 265.573 273.785 258.498Z" fill="#757575"/>
<path d="M357.232 139.023C357.232 139.023 359.008 139.023 360.783 136.664C362.559 134.306 372.324 134.306 372.324 134.306C371.437 131.948 364.334 128.018 359.895 127.232C356.344 126.446 352.793 127.232 351.905 127.232C351.905 124.873 351.905 123.301 351.905 123.301C369.661 125.659 379.427 131.162 379.427 139.809C379.427 140.595 378.539 141.381 378.539 141.381C374.1 135.878 365.222 136.664 363.447 138.236C362.559 139.809 359.008 142.167 358.12 141.381C356.344 139.809 351.018 139.809 351.018 139.809C351.018 139.809 351.018 139.023 351.905 139.023L357.232 139.023Z" fill="#757575"/>
<path d="M353.688 133.517C353.688 133.517 350.137 131.945 351.025 130.373C351.913 128.801 351.913 128.801 351.913 128.801C351.913 128.801 352.8 130.373 352.8 131.945C352.8 133.517 353.688 133.517 353.688 133.517Z" fill="#757575"/>
<path d="M367.005 129.591C367.005 129.591 365.229 129.591 364.342 131.949L364.342 133.521C364.342 133.521 367.005 130.377 368.781 130.377L367.005 129.591Z" fill="#757575"/>
<path d="M279.994 193.261C279.994 191.689 280.882 190.903 281.77 190.117C279.994 189.331 278.219 190.903 277.331 192.475C277.331 194.833 277.331 197.191 278.219 199.55C272.892 195.619 272.892 191.689 272.892 184.614C272.892 182.256 272.892 179.112 272.004 176.754C270.229 167.321 264.902 161.818 264.902 161.818C255.136 151.6 244.483 149.241 237.381 152.386C247.146 151.6 256.024 155.53 263.126 162.604C263.126 162.604 268.453 167.321 270.229 176.754C270.229 179.112 270.229 182.256 271.117 184.614C271.117 192.475 271.116 200.336 282.658 203.48L286.209 204.266C286.209 204.266 279.107 201.122 279.994 193.261Z" fill="black"/>
<path d="M234.721 139.022C252.477 135.877 269.345 146.882 274.672 154.743L276.448 153.957C271.121 146.882 251.589 130.375 234.721 139.022Z" fill="black"/>
<path d="M294.201 142.951L295.977 142.951C295.977 144.524 295.089 147.668 293.313 149.24C287.987 157.101 276.445 154.742 276.445 154.742C276.445 154.742 279.109 158.673 284.435 157.887C286.211 157.887 290.65 155.528 290.65 158.673C290.65 161.817 294.201 164.175 294.201 164.175C297.752 164.175 302.191 161.817 303.967 157.887C303.967 159.459 303.967 161.031 303.967 161.031C302.191 164.961 293.313 166.533 293.313 166.533C293.313 166.533 288.874 163.389 289.762 161.031C290.65 158.673 287.099 158.673 287.099 158.673C275.558 161.817 272.894 151.598 272.894 151.598C289.762 158.673 294.201 142.951 294.201 142.951Z" fill="#757575"/>
<path d="M302.197 126.445C314.626 114.654 326.167 118.584 326.167 118.584C326.167 118.584 333.269 120.942 343.923 119.37C354.576 117.798 351.913 128.017 351.913 128.803C351.913 128.803 350.137 121.728 342.147 123.301C342.147 123.301 330.606 122.515 325.279 121.728C319.953 120.942 312.85 125.659 312.85 125.659L313.738 122.514C313.738 122.514 309.299 124.087 301.309 128.803C287.992 137.45 265.798 131.947 265.798 131.947C265.798 131.947 269.349 138.236 279.114 136.664C285.329 135.878 290.656 133.519 295.982 136.664C295.982 136.664 292.431 139.022 288.88 139.808C288.88 139.808 290.656 141.38 293.319 141.38C295.982 141.38 302.197 139.808 305.748 137.45C305.748 137.45 303.085 142.166 293.319 143.738C285.329 141.38 284.441 139.022 284.441 139.022C287.992 139.022 291.543 136.664 291.543 136.664C287.104 135.092 280.002 137.45 280.002 137.45C261.359 139.808 261.359 128.803 261.359 128.803C261.359 128.803 293.319 134.305 302.197 126.445Z" fill="#757575"/>
<path d="M303.085 126.446C303.085 125.66 311.075 111.511 305.748 98.9342C305.748 98.1482 303.085 95.0039 303.085 95.0039C308.412 113.083 301.309 128.019 301.309 128.019L303.085 126.446Z" fill="black"/>
<path d="M328.832 94.9996L326.169 93.4275L327.057 95.7857C327.057 95.7857 329.72 100.502 327.945 104.432C327.945 105.218 327.057 106.005 327.057 106.005C326.169 106.005 325.281 105.218 325.281 105.218C325.281 103.646 324.393 97.3578 318.179 82.4226C311.077 65.1292 279.116 59.6267 277.341 59.6267L275.565 59.6267L276.453 61.1988C276.453 61.1988 279.116 70.6316 279.116 76.1341C279.116 81.6365 280.892 88.7111 285.331 90.2832C287.106 91.0693 287.994 94.9996 287.994 98.1439C285.331 94.9996 280.004 90.2832 273.789 88.7111C267.575 87.139 266.687 82.4226 266.687 81.6365C266.687 81.6365 254.258 95.7857 274.677 107.577C275.565 108.363 280.004 114.651 280.004 120.154L280.004 120.94L280.892 120.94C280.892 120.94 292.433 124.084 294.209 131.159L295.096 130.372C293.321 123.298 285.331 120.154 282.667 119.368C282.667 113.079 279.116 107.577 277.341 106.791L276.453 106.005C266.687 101.288 266.687 92.6414 267.575 87.925C268.463 89.4971 271.126 90.2832 273.789 91.0693C281.78 93.4275 288.882 101.288 288.882 102.074L290.657 104.432L290.657 102.074C290.657 101.288 292.433 91.8553 287.106 89.4971C283.555 87.925 281.78 82.4226 281.78 76.9201C281.78 72.9898 280.892 67.4874 280.004 63.557C293.321 72.9898 302.199 90.2832 302.199 90.2832L301.311 86.3529C300.423 83.9947 295.096 72.2037 282.667 62.771C291.545 65.1292 311.964 70.6316 317.291 83.2086C324.393 99.716 324.393 105.218 324.393 105.218C324.393 105.218 327.057 107.577 328.832 107.577C330.608 107.577 331.496 106.004 331.496 104.432C332.383 101.288 332.383 98.1439 331.496 96.5717C334.159 98.1439 348.364 109.149 341.261 119.368L343.925 119.368C350.139 103.646 328.832 94.9996 328.832 94.9996Z" fill="black"/>
<path d="M338.592 159.456C335.928 152.382 330.602 148.451 322.612 149.238C315.509 149.238 309.295 154.74 311.07 161.029C311.07 161.029 312.846 164.959 319.06 163.387C319.06 163.387 310.183 161.815 314.621 155.526C317.285 150.81 329.714 149.238 335.928 157.098C337.704 160.242 337.704 167.317 334.153 171.247C331.489 173.606 327.05 175.178 321.724 173.606C321.724 173.606 325.275 173.606 327.05 171.247C328.826 169.675 330.602 167.317 327.938 164.173C325.275 161.029 321.724 163.387 321.724 163.387C321.724 163.387 324.387 163.387 325.275 165.745C327.051 168.103 324.387 171.247 320.836 171.247C311.07 172.033 304.856 164.173 305.744 155.526C305.744 155.526 307.519 157.098 308.407 157.884C309.295 158.67 311.07 161.029 311.07 161.029C311.07 161.029 311.07 157.098 309.295 155.526C305.744 152.382 308.407 147.665 309.295 143.735C309.295 143.735 304.856 148.451 303.968 153.954C302.192 161.815 304.856 171.247 318.173 175.178C321.724 177.536 325.275 179.894 327.05 186.183C329.714 198.76 321.724 206.62 315.509 208.978C311.958 210.551 308.407 208.978 308.407 208.978C310.183 208.192 310.183 206.62 311.07 205.048C298.641 214.481 293.315 204.262 293.315 204.262C313.734 208.192 313.734 190.113 303.968 183.038C288.876 172.819 290.651 162.601 290.651 160.242L290.651 157.884C290.651 157.884 290.651 158.67 289.763 158.67C282.661 169.675 296.866 183.038 303.08 187.755C307.519 190.899 309.295 197.187 305.744 200.332C303.08 202.69 299.529 202.69 296.866 202.69C290.651 202.69 285.325 197.974 285.325 191.685C285.325 191.685 278.222 199.546 287.1 202.69C287.1 202.69 289.763 215.267 303.08 211.337C303.08 211.337 314.621 215.267 322.612 204.262C331.489 191.685 329.714 182.252 321.724 175.178C334.153 178.322 341.255 167.317 338.592 159.456Z" fill="#757575"/>
<path d="M303.967 220.77C310.181 212.91 319.059 206.621 326.161 203.477C314.62 211.338 303.967 225.487 301.303 227.845C284.435 241.994 263.128 244.352 263.128 244.352C263.128 244.352 269.343 249.855 287.099 241.208C285.323 245.138 286.211 249.069 286.211 249.069L293.313 246.711C293.313 246.711 289.762 256.929 291.537 260.86C291.537 261.646 295.089 263.218 295.089 263.218C297.752 238.85 310.181 228.631 319.059 222.343C298.64 243.566 297.752 267.934 297.752 267.934C297.752 267.934 286.211 264.79 287.986 258.502C289.762 252.999 290.65 250.641 290.65 250.641L284.435 252.213C284.435 252.213 283.547 247.497 284.435 245.138C281.772 246.711 276.445 248.283 274.67 248.283C272.006 249.069 267.567 249.069 265.792 248.283C264.904 248.283 264.904 247.497 264.904 247.497C264.016 246.711 263.128 245.925 263.128 245.925C257.802 247.497 253.363 241.208 253.363 241.208C257.802 243.566 288.874 241.994 303.967 220.77Z" fill="#757575"/>
<path d="M272.896 194.046C265.794 193.26 262.243 186.186 258.691 181.469C257.804 179.111 256.916 177.539 256.028 175.967C254.252 170.464 252.477 164.962 237.385 162.604C236.497 161.818 234.721 160.246 233.833 159.46C230.282 157.101 226.731 158.674 225.843 159.46C224.068 161.032 224.068 163.39 224.068 165.748C224.068 169.678 220.517 170.464 220.517 170.464C216.965 172.037 211.639 170.464 208.975 164.962C208.975 164.962 208.088 165.748 207.2 166.534C206.312 168.106 208.088 170.464 210.751 171.251C216.078 173.609 221.404 171.251 221.404 171.251C224.068 170.464 226.731 167.32 224.955 164.176C224.955 162.604 224.955 161.032 226.731 159.46C227.619 158.674 231.17 157.887 237.385 162.604C250.701 164.962 251.589 169.678 254.252 175.181C255.14 176.753 256.028 179.111 256.916 180.683C260.467 186.972 265.794 193.26 273.784 194.832L272.896 194.046Z" fill="black"/>
<path d="M295.976 226.276C299.527 226.276 303.079 225.49 303.079 225.49L302.191 223.918C302.191 223.918 295.088 226.276 288.874 223.132C285.323 221.559 278.22 213.699 277.333 208.196C276.445 216.057 283.547 222.345 287.986 224.704C290.65 226.276 293.313 226.276 295.976 226.276Z" fill="black"/>
<path d="M271.12 194.046C271.12 194.046 272.895 201.121 279.11 205.837C289.763 214.484 285.325 218.414 285.325 218.414C285.325 212.126 278.222 207.409 278.222 207.409C270.232 202.693 269.344 193.26 269.344 193.26L271.12 194.046Z" fill="black"/>
<path d="M280.003 236.495C280.003 236.495 282.666 229.42 280.003 224.704C277.339 219.987 278.227 213.699 278.227 213.699L279.115 216.843C279.115 216.843 280.003 221.56 281.778 225.49C283.554 229.42 283.554 235.709 280.003 236.495Z" fill="black"/>
<path d="M247.15 347.328C242.711 358.333 246.262 363.05 246.262 363.05C248.038 356.761 253.365 353.617 253.365 353.617C254.252 368.552 263.13 377.199 267.569 378.771C267.569 375.627 269.345 369.338 273.784 363.05C276.447 359.119 275.559 352.831 272.896 348.114C264.906 332.393 248.926 341.04 248.926 341.04C248.926 341.04 252.477 334.751 264.018 337.109C268.457 337.896 272.896 342.612 275.559 347.328C278.223 352.045 279.998 359.905 276.447 363.836C271.12 370.91 271.12 381.129 271.12 381.129L271.12 382.701C271.12 382.701 250.701 377.199 252.477 357.547C247.15 360.691 248.038 370.91 248.038 370.91C235.609 355.975 247.15 346.542 247.15 347.328Z" fill="black"/>
<path d="M260.465 337.11C260.465 337.11 251.588 328.463 259.578 319.816C260.465 319.03 262.241 317.458 263.129 316.672C266.68 313.528 271.119 310.383 272.007 301.737C272.895 304.881 272.895 308.811 271.119 311.956C266.68 319.03 265.792 321.388 268.456 323.746C268.456 319.816 269.343 320.602 273.782 313.528C279.109 304.881 270.231 292.304 270.231 291.518L270.231 295.448C271.119 308.025 266.68 311.955 262.241 315.1C261.353 315.886 259.578 317.458 258.69 318.244C248.924 328.463 258.69 337.11 260.465 337.11Z" fill="black"/>
<path d="M335.923 361.477C335.923 361.477 333.26 353.617 324.382 348.9C324.382 348.9 307.514 337.109 308.402 323.746C309.29 310.383 300.412 304.881 296.861 303.308C296.861 303.308 301.3 311.955 297.749 322.174C296.861 326.104 296.861 331.607 298.636 333.179C293.31 331.607 292.422 323.746 293.31 316.672C294.197 301.736 287.983 297.806 281.768 293.09C277.33 289.159 272.891 287.587 270.227 285.229C272.891 291.518 277.33 305.667 275.554 312.741C273.778 324.532 275.554 333.965 282.656 341.826C279.105 340.254 274.666 337.109 268.452 335.537C260.462 333.179 258.686 322.96 259.574 320.602C256.023 325.318 257.798 333.965 267.564 337.109C275.554 339.467 285.32 344.97 285.32 344.97C285.32 344.97 285.32 344.97 286.207 345.756C289.759 348.9 291.534 355.189 288.871 357.547C287.983 358.333 283.544 363.049 284.432 368.552C285.32 373.268 281.768 380.343 281.768 381.129L280.881 382.701C284.432 383.487 287.983 381.129 289.759 379.557C289.759 381.129 288.871 383.487 285.32 386.631C279.105 391.348 262.237 384.273 262.237 384.273L260.462 383.487L261.349 385.845C261.349 385.845 264.013 395.278 272.003 399.994C274.666 401.567 278.217 402.353 281.768 402.353C283.544 402.353 285.32 402.353 287.983 401.567C295.085 399.994 300.412 396.064 303.075 389.776C305.739 383.487 306.627 375.626 305.739 370.124C307.514 376.412 312.841 388.203 322.607 391.348L325.27 392.134L325.27 389.776C325.27 388.99 327.046 374.84 321.719 364.621C325.27 365.408 328.821 365.408 332.372 365.408L335.036 365.408L335.923 361.477ZM287.983 396.85C273.778 399.208 268.452 389.776 267.564 386.631C270.227 388.99 283.544 391.348 288.871 387.417C295.085 382.701 294.197 377.199 293.31 374.054C292.422 377.199 289.759 379.557 287.095 380.343C287.983 377.985 289.759 372.482 288.871 368.552C287.983 363.835 292.422 359.119 292.422 359.119C294.198 355.975 294.197 352.044 291.534 348.9C295.085 352.044 298.636 355.975 301.3 359.119C303.075 361.477 303.963 364.622 304.851 367.766C305.739 379.557 302.188 395.278 287.983 396.85ZM312.841 356.761C323.494 366.98 322.607 379.557 322.607 385.059C317.28 382.701 312.841 375.626 311.065 372.482C311.065 371.696 306.627 356.761 293.31 347.328C280.881 338.681 278.217 328.463 279.993 315.099C280.881 309.597 279.105 300.164 274.666 291.518C278.217 293.09 292.422 302.522 290.646 318.244C289.759 333.965 298.636 337.895 299.524 337.895L304.851 339.467C304.851 339.467 299.524 334.751 299.524 326.104C299.524 322.174 300.412 312.741 300.412 308.025C306.627 314.313 306.627 319.03 305.739 324.532C304.851 339.467 317.28 347.328 321.719 350.472C326.158 352.831 329.709 358.333 328.821 360.691C320.831 360.691 313.729 356.761 312.841 356.761Z" fill="black"/>
<path d="M250.702 128.8C250.702 128.8 253.365 124.084 263.131 122.512C272.897 120.939 269.345 109.935 269.345 109.935C269.345 109.935 270.233 119.367 264.019 120.153C257.804 120.939 251.59 124.084 250.702 128.8Z" fill="black"/>
<path d="M174.362 359.121C174.362 359.121 168.147 363.051 169.035 366.196C169.923 369.34 171.698 368.554 174.362 368.554C174.362 368.554 170.811 367.768 171.698 364.624C171.698 361.479 174.362 359.121 174.362 359.121Z" fill="black"/>
<path d="M238.283 371.696C240.059 374.84 243.61 374.84 252.488 377.984C257.815 379.556 262.254 382.7 262.254 386.631C262.254 389.775 259.59 390.561 259.59 390.561C262.254 388.203 259.59 382.7 248.937 379.556C236.508 375.626 238.283 371.696 238.283 371.696Z" fill="black"/>
<path d="M240.065 363.837C240.065 363.837 246.279 367.767 245.391 370.912C244.504 374.056 242.728 373.27 240.065 373.27C240.065 373.27 243.616 372.484 242.728 369.34C241.84 366.981 240.065 363.837 240.065 363.837Z" fill="black"/>
<path d="M229.409 363.835C229.409 363.835 231.185 366.98 234.736 367.766C238.287 369.338 239.175 365.408 239.175 365.408C239.175 365.408 240.95 370.124 235.624 370.124C230.297 370.124 228.521 366.98 228.521 366.98C228.521 366.98 231.185 371.696 228.521 371.696C225.858 371.696 219.644 367.766 218.756 362.263C218.756 362.263 226.746 370.124 227.634 367.766C228.521 365.408 224.97 360.691 224.97 360.691C224.97 360.691 228.521 361.477 229.409 363.835Z" fill="black"/>
<path d="M185.021 364.618C185.021 364.618 183.245 367.763 179.694 368.549C176.143 370.121 175.255 366.19 175.255 366.19C175.255 366.19 173.48 370.907 178.806 370.907C184.133 370.907 185.909 367.763 185.909 367.763C185.909 367.763 183.245 372.479 185.909 372.479C188.572 372.479 194.787 368.549 195.674 363.046C195.674 363.046 187.684 370.907 186.796 368.549C185.909 366.19 189.46 361.474 189.46 361.474C189.46 361.474 185.909 362.26 185.021 364.618Z" fill="black"/>
<path d="M176.147 371.692C174.372 374.837 170.821 374.837 161.943 377.981C156.616 379.553 152.177 382.697 152.177 386.628C152.177 389.772 154.841 390.558 154.841 390.558C152.177 388.2 154.841 382.697 165.494 379.553C177.923 376.409 176.147 371.692 176.147 371.692Z" fill="black"/>
<path d="M260.481 390.559C259.594 388.987 257.818 387.415 256.042 387.415C251.604 385.843 249.828 388.987 248.94 390.559C245.389 394.489 240.062 395.276 232.072 388.987C222.307 381.912 214.316 363.047 214.316 363.047L212.541 363.833L210.765 363.833C210.765 363.833 225.858 391.345 224.97 403.136C224.082 414.927 206.326 418.857 211.653 431.434C211.653 431.434 213.429 422.788 222.307 416.499C232.072 410.211 230.297 400.778 228.521 396.848C227.633 393.703 224.082 387.415 222.307 382.698C224.97 385.057 227.633 388.987 230.297 391.345C237.399 396.848 245.389 398.42 248.94 392.917C249.828 391.345 251.604 388.201 255.155 388.987C261.369 390.559 259.594 396.062 256.93 396.848C258.706 399.206 263.145 396.848 260.481 390.559Z" fill="black"/>
<path d="M232.073 360.689C232.073 360.689 226.746 359.902 224.971 352.828C224.083 348.111 218.756 344.181 218.756 344.181C218.756 344.181 224.971 345.753 225.858 350.47C227.634 355.186 227.634 358.33 232.073 360.689Z" fill="black"/>
<path d="M214.321 346.541C214.321 346.541 201.892 342.61 195.678 349.685C190.351 355.187 198.341 365.406 198.341 365.406C198.341 365.406 209.882 370.123 217.872 363.834C217.872 363.834 221.423 350.471 214.321 346.541ZM208.994 364.62C208.994 364.62 197.453 362.262 196.565 358.332C195.678 352.829 205.443 348.113 205.443 348.113C205.443 348.113 216.097 350.471 216.097 355.187C216.097 354.401 214.321 362.262 208.994 364.62Z" fill="black"/>
<path d="M198.343 420.428C187.69 413.353 187.69 407.064 187.69 401.562C187.69 401.562 187.69 392.915 198.343 374.836C201.007 369.333 203.67 365.403 203.67 365.403L200.119 364.617C200.119 364.617 193.017 377.98 192.129 378.766C189.466 382.696 185.914 387.413 182.363 389.771C174.373 396.06 169.046 395.273 165.495 391.343C164.608 389.771 162.832 386.627 158.393 388.199C156.617 388.985 154.842 389.771 153.954 391.343C151.291 396.846 154.842 399.204 156.617 398.418C153.954 397.632 153.066 392.129 158.393 390.557C161.944 388.985 163.72 392.915 164.608 394.487C168.159 399.99 176.149 398.418 183.251 392.915C185.027 391.343 186.802 390.557 187.69 388.985C185.027 396.846 185.027 402.348 185.027 402.348C185.027 407.851 185.027 417.283 196.568 425.144C207.221 431.432 207.221 438.507 207.221 438.507C208.109 436.935 213.436 430.646 198.343 420.428Z" fill="black"/>
<path d="M183.255 361.475C183.255 361.475 188.582 360.689 190.357 353.614C191.245 348.898 196.572 344.968 196.572 344.968C196.572 344.968 190.357 346.54 189.469 351.256C186.806 355.972 186.806 359.117 183.255 361.475Z" fill="black"/>
<path d="M208.988 425.931C208.988 425.931 216.978 419.643 200.11 408.638C192.12 403.135 195.671 385.056 195.671 385.056C195.671 385.056 185.018 402.349 196.559 410.21C209.876 419.643 208.988 425.931 208.988 425.931Z" fill="black"/>
<path d="M239.157 77.7059C239.157 77.7059 246.259 73.7755 245.372 69.8452C244.484 65.9149 241.82 66.701 239.157 67.487C239.157 67.487 243.596 69.0592 242.708 72.2034C241.82 73.7755 239.157 77.7059 239.157 77.7059Z" fill="black"/>
<path d="M175.241 66.7025C173.465 63.5583 169.914 63.5583 161.036 60.414C155.709 58.8419 151.27 55.6976 151.27 51.7673C151.27 48.6231 153.934 49.4091 153.934 49.4091C151.27 51.7673 153.934 55.6976 164.587 58.8419C176.128 62.7722 175.241 66.7025 175.241 66.7025Z" fill="black"/>
<path d="M182.349 66.705C182.349 66.705 177.022 72.2074 174.359 70.6353C170.808 69.0632 171.696 67.4911 172.584 65.9189C172.584 65.9189 173.471 69.0632 177.022 69.0632C178.798 67.4911 182.349 66.705 182.349 66.705Z" fill="black"/>
<path d="M228.506 72.9935C228.506 72.9935 230.282 69.8493 233.833 69.0632C237.384 67.4911 238.272 71.4214 238.272 71.4214C238.272 71.4214 240.048 66.705 234.721 66.705C229.394 66.705 228.506 70.6353 228.506 70.6353C228.506 70.6353 231.17 65.9189 228.506 65.9189C225.843 65.9189 219.629 69.8493 218.741 75.3517C218.741 75.3517 226.731 67.4911 227.619 69.8493C228.506 72.2075 224.955 76.9238 224.955 76.9238C224.955 76.9238 227.619 75.3517 228.506 72.9935Z" fill="black"/>
<path d="M236.504 67.4896C238.28 64.3453 241.831 64.3453 250.709 61.201C256.036 59.6289 260.475 56.4847 260.475 52.5543C260.475 49.4101 257.811 48.624 257.811 48.624C260.475 50.9822 257.811 56.4847 247.158 59.6289C234.729 63.5592 236.504 67.4896 236.504 67.4896Z" fill="black"/>
<path d="M153.052 48.6209C153.939 50.1931 155.715 51.7652 157.491 51.7652C161.929 53.3373 163.705 50.1931 164.593 48.6209C168.144 44.6906 173.471 43.9046 181.461 50.1931C191.226 57.2677 199.217 76.1332 199.217 76.1332L200.992 75.3471L202.768 75.3471C202.768 75.3471 187.675 47.8349 188.563 36.0439C189.451 24.253 207.207 20.3226 201.88 7.74561C201.88 7.74561 200.104 16.3923 191.226 22.6808C181.461 28.9693 183.236 38.4021 185.012 42.3324C185.9 45.4767 189.451 51.7652 191.226 56.4816C188.563 54.1234 185.9 50.1931 183.236 47.8349C176.134 42.3324 168.144 40.7603 164.593 46.2628C163.705 47.8349 161.929 50.9791 158.378 50.1931C152.164 48.6209 153.939 43.1185 156.603 42.3324C153.939 40.7603 149.5 43.1185 153.052 48.6209Z" fill="black"/>
<path d="M215.189 75.3489C206.311 69.0604 195.658 73.7768 195.658 73.7768C195.658 73.7768 188.555 83.9956 192.994 89.498C199.209 96.5726 211.638 92.6423 211.638 92.6423C218.74 87.9259 216.077 75.3489 215.189 75.3489ZM214.301 84.7816C214.301 89.498 203.648 91.8562 203.648 91.8562C203.648 91.8562 193.882 86.3538 194.77 81.6374C195.658 77.7071 207.199 75.3489 207.199 75.3489C211.638 76.921 214.301 84.7816 214.301 84.7816Z" fill="black"/>
<path d="M214.302 18.7533C224.956 25.8279 224.956 32.1164 224.956 37.6188C224.956 37.6188 224.956 46.2656 214.302 64.345C211.639 69.8475 208.975 73.7778 208.975 73.7778L212.527 74.5639C212.527 74.5639 219.629 61.2008 220.517 60.4147C223.18 56.4844 226.731 51.768 230.282 49.4098C238.272 43.1213 243.599 43.9074 247.15 47.8377C248.038 49.4098 249.814 52.5541 254.253 50.9819C256.028 50.1959 257.804 49.4098 258.692 47.8377C261.355 42.3352 257.804 39.977 256.028 40.7631C258.692 41.5492 259.579 47.0516 254.253 48.6237C250.701 50.1959 248.926 46.2655 248.038 44.6934C244.487 39.191 236.497 40.7631 229.395 46.2656C227.619 47.8377 225.843 48.6237 224.956 50.1959C227.619 42.3352 227.619 36.8328 227.619 36.8328C227.619 31.3303 227.619 21.8976 216.078 14.0369C205.424 7.74841 205.424 0.673828 205.424 0.673828C205.424 2.24596 199.21 8.53447 214.302 18.7533Z" fill="black"/>
<path d="M203.662 13.2483C203.662 13.2483 195.672 19.5368 212.54 30.5417C220.53 36.0441 216.979 54.1236 216.979 54.1236C216.979 54.1236 227.632 36.8302 216.091 28.9696C202.774 19.5368 203.662 13.2483 203.662 13.2483Z" fill="black"/>
<path d="M164.582 128.017C164.582 128.017 161.919 123.301 152.153 121.728C142.387 120.156 145.938 109.151 145.938 109.151C145.938 109.151 145.938 118.584 151.265 119.37C156.592 119.37 162.806 123.301 164.582 128.017Z" fill="black"/>
<path d="M183.235 107.578C181.46 106.792 178.797 106.792 178.797 106.792C191.226 112.294 208.094 124.085 208.981 142.951C208.981 142.951 209.869 139.806 209.869 139.02C208.981 120.941 191.226 109.936 183.235 107.578Z" fill="black"/>
<path d="M172.582 85.5694C169.031 87.1415 165.48 96.5742 164.592 101.291C157.49 92.6439 163.704 74.5645 163.704 74.5645C163.704 75.3505 150.387 93.43 165.48 106.007L166.368 104.435C167.255 99.7185 169.031 94.2161 171.694 91.0718C171.694 95.0021 173.47 103.649 181.46 106.007C173.47 100.505 172.582 87.9275 172.582 85.5694Z" fill="black"/>
<path d="M266.681 294.66C266.681 294.66 263.13 294.66 258.691 302.52C256.028 307.237 251.589 311.953 246.262 315.097C243.599 316.669 240.935 317.455 238.272 317.455C230.282 318.242 216.077 318.242 212.526 311.167C211.638 310.381 210.75 309.595 209.863 308.809C206.311 308.023 206.311 306.451 206.311 306.451C206.311 308.023 202.76 309.595 202.76 309.595C200.985 310.381 200.097 311.167 199.209 311.953C195.658 319.814 181.453 319.814 173.463 318.242C170.8 318.242 168.137 316.669 165.473 315.883C161.034 312.739 155.708 308.023 153.044 303.306C148.605 294.66 145.054 295.446 145.054 295.446C138.84 295.446 142.391 303.306 142.391 303.306C142.391 303.306 142.391 301.734 145.054 301.734C147.717 300.948 153.044 308.023 153.044 308.023C158.371 315.097 166.361 318.242 167.249 319.028C169.024 319.814 173.463 320.6 178.79 320.6C186.78 320.6 197.434 319.028 200.097 312.739C200.097 311.953 202.76 310.381 205.424 310.381C207.199 310.381 208.975 311.167 209.863 311.953C212.526 318.242 223.179 319.814 231.169 319.814C236.496 319.814 240.935 318.242 242.711 318.242C243.599 318.242 251.589 314.311 256.915 307.237C256.915 307.237 262.242 300.162 264.905 300.948C267.569 301.734 267.569 302.52 267.569 302.52C267.569 302.52 272.895 294.66 266.681 294.66Z" fill="black"/>
<path d="M250.7 103.649C250.7 103.649 248.925 108.365 247.149 109.937C245.373 113.082 240.047 117.798 240.047 117.798C244.486 112.296 245.373 103.649 245.373 99.7186C244.486 95.7883 240.047 91.858 240.047 91.858C232.057 98.1465 231.169 102.863 231.169 102.863C232.944 94.2162 232.057 85.5695 225.842 79.281C224.067 77.7089 220.515 76.1367 219.628 76.1367C219.628 76.1367 216.964 95.7883 213.413 99.7186C219.628 92.6441 220.515 83.9974 221.403 79.281C226.73 80.8531 229.393 89.4998 229.393 96.5744C228.505 95.0023 228.505 94.2162 226.73 93.4301C223.179 92.6441 221.403 89.4998 221.403 89.4998C221.403 89.4998 220.515 94.2162 224.954 95.7883C229.393 97.3605 229.393 101.291 229.393 101.291C229.393 106.007 229.393 110.724 229.393 110.724C233.832 101.291 240.047 98.1465 240.047 98.1465C248.037 109.151 232.944 124.873 232.944 124.873C238.271 124.873 248.925 113.868 248.925 113.868C244.486 141.38 212.525 152.385 211.637 152.385L209.862 157.101C216.076 151.599 240.934 142.166 247.149 128.803C255.139 111.51 250.7 103.649 250.7 103.649Z" fill="black"/>
<path d="M179.682 87.9277C179.682 87.9277 174.355 92.6441 177.906 103.649L181.458 106.007C181.458 106.007 177.019 99.7187 179.682 87.9277Z" fill="black"/>
<path d="M68.699 108.364C68.699 108.364 69.5868 109.15 73.138 112.294L73.138 110.722C73.138 110.722 71.3624 107.578 67.8112 106.792C67.8112 106.792 59.8212 118.583 70.4746 121.727C71.3624 121.727 74.0258 121.727 74.0258 121.727C74.0258 121.727 64.2601 118.583 68.699 108.364Z" fill="black"/>
<path d="M161.04 256.928C161.04 256.928 152.162 263.217 155.713 271.863C158.376 279.724 161.927 280.51 161.927 280.51C161.927 280.51 161.927 294.659 169.03 297.804C169.03 297.804 162.815 286.799 164.591 279.724C164.591 280.51 152.162 270.291 161.04 256.928Z" fill="black"/>
<path d="M150.384 260.861C150.384 260.861 159.262 262.433 153.048 277.368C153.048 277.368 149.496 288.373 161.925 301.736C161.925 301.736 148.609 295.448 150.384 276.582C150.384 276.582 153.048 268.721 152.16 266.363C151.272 264.005 149.496 263.219 150.384 260.861Z" fill="black"/>
<path d="M187.682 223.127L185.907 226.272C185.019 227.844 184.131 230.202 184.131 230.202C183.243 233.346 182.355 241.993 185.019 245.923C185.019 245.923 185.907 228.63 187.682 223.127Z" fill="black"/>
<path d="M184.12 246.71C184.12 246.71 177.018 261.645 178.794 274.222C178.794 274.222 172.579 275.794 176.13 257.715C177.018 254.57 178.794 249.854 184.12 246.71Z" fill="black"/>
<path d="M181.462 281.294C181.462 281.294 183.238 276.578 189.452 277.364C189.452 277.364 193.004 277.364 195.667 278.936C198.33 280.508 201.882 281.294 201.882 281.294C201.882 281.294 200.994 283.653 190.34 279.722C187.677 278.15 181.462 281.294 181.462 281.294Z" fill="black"/>
<path d="M177.014 201.909C177.014 201.909 165.472 195.62 156.594 196.406C147.717 197.192 145.941 192.476 145.941 192.476C145.941 192.476 149.492 194.834 154.819 194.834C160.146 194.048 171.687 196.406 177.014 201.909Z" fill="black"/>
<path d="M147.723 224.704C147.723 224.704 153.05 230.993 159.265 232.565C160.153 233.351 153.05 235.709 147.723 224.704Z" fill="black"/>
<path d="M196.548 205.837C197.436 210.554 192.997 212.126 192.109 212.912C191.221 212.126 188.558 209.767 185.895 210.554C178.792 211.34 172.578 205.051 172.578 205.051C172.578 205.051 169.027 204.265 161.924 206.623C161.924 206.623 170.802 206.623 175.241 208.981C175.241 208.981 180.568 214.484 185.895 213.698C185.895 213.698 191.221 212.912 192.109 215.27C200.987 212.912 196.548 205.837 196.548 205.837Z" fill="black"/>
<path d="M173.468 215.271C173.468 215.271 162.815 206.624 151.273 215.271C149.498 216.843 145.947 216.843 142.395 216.843C138.844 216.843 137.069 216.843 137.069 216.843C146.834 219.987 151.273 218.415 151.273 218.415C152.161 221.559 155.712 227.062 163.702 227.848C163.702 227.848 166.366 227.848 169.917 227.062C177.019 230.992 177.019 236.495 177.019 236.495C177.019 236.495 179.682 221.559 173.468 215.271ZM154.824 216.843C157.488 214.485 161.039 213.699 161.039 213.699C161.927 213.699 161.927 213.699 161.927 213.699C160.151 214.485 159.263 216.843 159.263 219.987C159.263 222.346 160.151 223.918 161.039 225.49C155.712 223.132 154.824 216.843 154.824 216.843ZM162.815 219.987C161.927 219.987 161.039 219.201 161.039 217.629C161.039 216.057 161.927 215.271 162.815 215.271C163.702 215.271 164.59 216.057 164.59 217.629C164.59 219.201 163.702 219.987 162.815 219.987ZM167.253 226.276C169.029 224.704 169.917 223.132 169.917 219.987C169.917 217.629 169.029 216.057 168.141 214.485C174.356 216.843 175.244 223.918 175.244 223.918C171.692 225.49 169.029 226.276 167.253 226.276Z" fill="black"/>
<path d="M249.805 256.928C249.805 256.928 258.683 263.216 255.132 271.863C252.468 279.724 248.917 280.51 248.917 280.51C248.917 280.51 248.917 294.659 241.815 297.803C241.815 297.803 248.029 286.798 246.254 279.724C246.254 280.51 259.571 270.291 249.805 256.928Z" fill="black"/>
<path d="M261.342 260.86C261.342 260.86 252.464 262.432 258.678 277.368C258.678 277.368 262.229 288.373 249.8 301.736C249.8 301.736 263.117 295.447 261.342 276.582C261.342 276.582 258.678 268.721 259.566 266.363C260.454 264.005 261.342 263.219 261.342 260.86Z" fill="black"/>
<path d="M223.162 223.127L225.825 225.486C226.713 227.058 227.601 229.416 227.601 229.416C228.489 232.56 229.377 241.207 226.713 245.137C226.713 245.923 225.825 228.63 223.162 223.127Z" fill="black"/>
<path d="M227.598 246.709C227.598 246.709 234.7 261.645 232.924 274.222C232.924 274.222 239.139 275.794 235.588 257.714C233.812 254.57 232.037 249.854 227.598 246.709Z" fill="black"/>
<path d="M233.818 280.51C232.93 280.51 232.931 282.082 232.043 282.868C231.155 284.441 228.492 286.013 219.614 289.157C214.287 291.515 209.848 296.231 208.072 298.59C207.185 299.376 206.297 299.376 206.297 300.162C205.409 300.162 204.521 300.162 204.521 298.59C202.746 296.231 199.195 290.729 192.98 289.157C184.102 286.013 181.439 284.44 179.663 282.082C178.775 281.296 178.775 280.51 177.888 279.724C177 279.724 175.224 279.724 175.224 279.724C175.224 279.724 175.224 283.654 181.439 287.585C187.653 292.301 191.204 291.515 191.204 291.515C191.204 291.515 200.97 296.231 203.634 304.092C204.521 306.45 206.297 306.45 207.185 306.45C207.185 306.45 209.848 306.45 210.736 304.092C212.511 295.445 223.165 291.515 223.165 291.515C223.165 291.515 226.716 291.515 232.93 287.585C238.257 283.654 239.145 279.724 239.145 279.724C239.145 279.724 234.706 279.724 233.818 280.51Z" fill="black"/>
<path d="M229.376 281.297C229.376 281.297 227.6 276.58 221.386 277.366C221.386 277.366 217.834 277.366 215.171 278.939C212.508 280.511 208.957 281.297 208.957 281.297C208.957 281.297 209.844 283.655 220.498 279.725C224.049 278.153 229.376 281.297 229.376 281.297Z" fill="black"/>
<path d="M234.702 201.909C234.702 201.909 246.243 195.621 255.121 196.407C263.999 197.193 265.775 192.476 265.775 192.476C265.775 192.476 262.223 194.835 256.897 194.835C251.57 194.048 239.141 196.407 234.702 201.909Z" fill="black"/>
<path d="M263.116 224.707C263.116 224.707 257.789 230.996 251.575 232.568C251.575 233.354 258.677 235.712 263.116 224.707Z" fill="black"/>
<path d="M214.291 205.84C213.404 210.557 217.843 212.129 218.73 212.915C219.618 212.129 222.281 209.771 224.945 210.557C232.047 211.343 238.262 205.054 238.262 205.054C238.262 205.054 241.813 204.268 248.915 206.626C248.915 206.626 240.037 206.626 235.598 208.985C235.598 208.985 230.272 214.487 224.945 213.701C224.945 213.701 219.618 212.915 218.73 215.273C210.74 212.915 214.291 205.84 214.291 205.84Z" fill="black"/>
<path d="M272.005 216.841C271.117 216.841 269.341 216.841 268.453 216.841C265.79 216.841 262.239 216.841 259.575 215.269C248.034 206.622 237.381 215.269 237.381 215.269C231.166 220.771 232.942 236.492 232.942 236.492C232.942 236.492 233.83 230.99 240.044 227.059C242.708 227.846 246.259 227.846 246.259 227.846C255.137 227.059 257.8 221.557 258.688 218.413C258.688 218.413 263.127 219.985 272.892 216.841C273.78 216.841 272.892 216.841 272.005 216.841ZM236.493 223.915C236.493 223.915 237.381 217.627 243.595 214.482C242.708 216.055 241.82 217.627 241.82 219.985C241.82 222.343 242.708 224.701 244.483 226.273C242.708 226.273 240.044 225.487 236.493 223.915ZM248.034 219.985C247.146 219.985 246.259 219.199 246.259 217.627C246.259 216.055 247.146 215.269 248.034 215.269C248.922 215.269 249.81 216.055 249.81 217.627C249.81 219.199 249.81 219.985 248.034 219.985ZM250.698 225.487C251.585 223.915 252.473 222.343 252.473 219.985C252.473 216.841 251.585 215.269 249.81 213.696C250.698 213.696 250.698 213.696 250.698 213.696C250.698 213.696 254.249 214.482 256.912 216.841C256.912 216.841 256.024 223.129 250.698 225.487Z" fill="black"/>
<path d="M171.74 253.085C172.383 252.43 172.305 251.437 171.564 250.867C170.824 250.298 169.703 250.367 169.059 251.023C168.416 251.678 168.495 252.671 169.235 253.241C169.975 253.81 171.097 253.74 171.74 253.085Z" fill="black"/>
<path d="M238.274 318.242L234.723 319.028C234.723 322.173 233.835 325.317 231.172 327.675C231.172 329.247 230.284 330.819 227.621 332.392C224.958 334.75 222.294 335.536 219.631 335.536C217.855 337.108 215.192 338.68 209.865 339.466C205.426 340.252 201.875 339.466 199.212 337.894C197.436 338.68 193.885 338.68 189.446 336.322C185.007 333.964 183.232 332.392 183.232 331.606C178.793 328.461 175.241 325.317 175.241 320.601L171.69 319.815C171.69 319.815 173.466 330.033 180.568 333.964L181.456 333.178C181.456 333.178 182.344 335.536 185.895 337.894C189.446 340.252 190.334 341.824 190.334 341.824L191.222 340.252C191.222 340.252 196.548 343.396 196.548 344.969L197.436 343.396C197.436 343.396 201.875 345.755 201.875 347.327C201.875 347.327 204.538 344.969 205.426 344.969C206.314 344.969 206.314 344.183 206.314 343.396C206.314 343.396 206.314 344.969 207.202 344.969C208.09 345.755 208.977 347.327 208.977 347.327C208.977 347.327 214.304 344.969 215.192 343.396L216.08 344.969C216.08 344.969 218.743 344.183 223.182 338.68C223.182 338.68 224.958 337.108 226.733 336.322C226.733 336.322 225.845 337.894 228.509 337.894C228.509 337.894 229.397 334.75 232.06 333.178C234.723 332.392 236.499 326.889 236.499 326.889L237.387 328.461C237.387 326.889 240.05 319.815 238.274 318.242Z" fill="black"/>
<path d="M216.959 129.588C215.183 117.797 194.764 107.578 201.866 94.2148C202.754 93.4287 200.978 91.8566 200.091 93.4287C192.988 106.006 208.968 115.439 213.407 125.657C216.071 131.16 215.183 137.448 213.407 142.951C213.407 134.304 210.744 125.657 205.417 117.797C202.754 114.652 200.091 111.508 196.539 108.364C192.988 105.22 187.662 102.862 184.998 98.9312C180.559 91.0705 183.223 80.0657 189.437 73.7771C182.335 72.205 172.569 76.1353 168.13 81.6378C168.13 74.5632 176.12 73.7771 179.671 69.0608C180.559 68.2747 181.447 65.9165 181.447 65.9165C173.457 71.4189 161.028 73.7771 166.355 87.1402C169.018 81.6378 176.12 76.1353 183.223 76.1353C179.671 80.8517 179.671 85.5681 179.671 90.2845C179.671 98.9312 185.886 103.648 192.988 108.364C208.081 120.155 214.295 138.234 208.081 154.742C207.193 157.1 206.305 159.458 204.53 161.03C204.53 142.165 184.998 133.518 170.794 121.727C162.804 115.439 154.813 107.578 152.15 98.1451C149.487 87.1402 156.589 72.9911 164.579 64.3444C165.467 63.5583 162.804 65.1304 161.916 65.9165C155.701 72.205 150.374 80.0657 149.487 89.4984C148.599 98.9312 152.15 106.792 158.365 113.866C169.906 127.23 192.988 135.09 200.091 150.811C196.539 145.309 190.325 139.807 178.784 137.448C157.477 131.946 138.833 146.095 134.394 153.17L136.17 153.956C141.497 146.095 159.252 134.304 177.896 139.02C199.203 144.523 202.754 158.672 200.091 166.533C198.315 170.463 194.764 172.035 192.988 171.249C194.764 170.463 196.539 168.891 196.539 167.319C197.427 164.961 196.539 163.388 195.652 161.03C192.988 157.1 183.223 150.811 171.681 150.025C164.579 149.239 153.926 150.811 144.16 161.03C144.16 161.816 137.945 166.533 137.058 175.965C137.058 178.324 136.17 181.468 136.17 183.826C136.17 190.901 136.17 195.617 130.843 198.761C131.731 196.403 132.619 194.831 132.619 192.473C132.619 190.901 129.955 188.542 128.18 189.329C129.068 190.115 129.955 190.901 129.955 192.473C130.843 200.333 123.741 203.478 123.741 203.478L127.292 202.692C132.619 201.12 135.282 198.761 137.058 194.831C144.16 193.259 149.487 186.97 153.038 181.468C153.926 179.11 154.813 177.538 155.701 175.965C157.477 170.463 159.252 165.747 172.569 163.388C177.896 158.672 181.447 159.458 183.223 160.244C184.11 161.03 184.998 163.388 184.998 164.961C184.11 168.105 186.774 171.249 189.437 172.035C189.437 172.035 190.325 172.821 191.213 172.821C193.876 173.607 197.427 173.607 200.091 172.035C202.754 171.249 204.53 168.891 204.53 165.747C207.193 161.816 209.856 157.886 210.744 153.956C215.183 146.881 217.846 137.448 216.959 129.588ZM192.988 171.249C191.213 171.249 186.774 170.463 187.662 165.747C187.662 164.175 187.662 161.03 185.886 159.458C184.998 158.672 181.447 157.1 177.896 159.458C177.008 160.244 175.233 161.816 174.345 162.602C160.14 164.175 158.365 170.463 155.701 175.965L153.038 181.468C150.374 186.184 145.936 192.473 139.721 194.045C140.609 190.901 140.609 187.756 140.609 184.612C140.609 182.254 140.609 179.11 141.497 176.752C142.384 168.105 147.711 163.388 148.599 162.602C155.701 155.528 164.579 151.597 174.345 152.384C184.998 153.17 193.876 157.1 197.427 161.816C198.315 163.388 199.203 165.747 198.315 166.533C195.652 170.463 194.764 171.249 192.988 171.249Z" fill="black"/>
<path d="M205.434 93.4284C209.873 99.7169 209.873 108.364 206.322 114.652C205.434 115.438 207.21 117.01 208.098 115.438C211.649 108.364 212.537 98.9309 207.21 92.6423C206.322 91.0702 204.546 91.8563 205.434 93.4284Z" fill="black"/>
<path d="M279.999 77.7073C278.224 68.2745 268.458 60.4139 258.692 58.0557C259.58 61.986 261.356 67.4884 262.244 72.2048C261.356 70.6327 258.692 66.7024 253.366 66.7024C253.366 66.7024 256.029 74.563 254.253 80.0655C252.478 85.5679 251.59 93.4286 258.692 97.3589C258.692 97.3589 253.366 88.7122 256.917 80.8515C258.692 76.1351 257.805 69.8466 257.805 69.8466C257.805 69.8466 264.019 72.9909 264.907 78.4933C266.682 73.7769 264.019 65.9163 262.244 60.4139C271.121 62.772 279.112 72.9909 280.887 80.8515C279.999 82.4237 279.999 79.2794 279.999 77.7073Z" fill="black"/>
</svg>
