<svg width="132" height="50" viewBox="0 0 132 50" fill="none" xmlns="http://www.w3.org/2000/svg">
<path d="M87.5731 36.3771C87.5731 36.3771 93.5394 28.1102 96.7389 23.6771L100.361 26.3834L83.9326 49.1471L68.1135 37.3307C65.8191 35.6168 64.3193 33.5744 63.7692 31.5039C63.2191 29.4334 63.6188 27.3348 65.0888 25.2981C66.2993 23.6207 67.7334 22.6635 69.6848 22.2773C71.6365 21.8909 73.4836 22.1643 75.347 23.1875L76.2102 8.34277L80.0744 11.2294L79.4185 26.0445L79.4125 31.203L74.8237 27.7756C73.6162 26.8733 72.4772 26.3915 71.3203 26.4494C70.1635 26.507 69.403 27.0454 68.7112 28.0041C68.0195 28.9625 67.7765 30.0719 68.0346 31.0019C68.2926 31.9322 68.9991 33.0133 70.3274 34.0055L82.5237 43.1159L87.2795 36.5264" fill="black"/>
<path d="M72.3967 13.1017C72.3967 13.1017 66.4814 21.4064 63.3092 25.8594L59.6699 23.1763L75.9592 0.308838L91.8503 12.0249C94.1552 13.7243 95.6674 15.7568 96.2302 17.824C96.7929 19.8909 96.4062 21.9921 94.9488 24.0382C93.7486 25.7231 92.3202 26.6893 90.3712 27.0879C88.4219 27.4867 86.5733 27.225 84.7036 26.2136L83.9311 41.0634L80.0494 38.2016L80.6146 23.3825L80.589 18.2237L85.1989 21.6225C86.4118 22.5167 87.5538 22.9915 88.7101 22.9264C89.8666 22.8612 90.6238 22.318 91.3095 21.3551C91.9955 20.3922 92.2316 19.2816 91.9681 18.3528C91.7044 17.4242 90.9912 16.3477 89.6568 15.364L77.4048 6.33092L72.6897 12.9504" fill="black"/>
<path d="M128.996 37.3897H116.567C108.921 37.3897 103.271 32.4968 103.271 26.0441C103.271 19.5001 108.921 15.1577 116.567 15.1577H131.408L128.394 19.0413H116.567C111.671 19.0413 108.055 22.0077 108.055 26.2277C108.055 30.4173 111.633 33.5058 116.567 33.5058H131.408L128.996 37.3897Z" fill="black"/>
<path d="M48.1663 37.3897H43.3773V19.0413H32.9697L35.381 15.1577H58.574L56.1626 19.0413H48.1663V37.3897Z" fill="black"/>
<path d="M21.7825 37.3897H0.893616V15.1577H21.2098C26.6323 15.1577 30.2219 17.1149 30.2219 20.9068C30.2219 23.7201 28.4273 25.1267 26.365 25.6468C28.8854 26.2889 30.7187 28.0625 30.7187 30.6617C30.7187 34.7292 27.2053 37.3897 21.7825 37.3897ZM21.5914 27.726H13.4766L15.888 24.4542H21.2478C23.9973 24.4542 25.2958 23.6896 25.2958 21.7629C25.2958 19.4084 22.9662 19.0413 19.3766 19.0413H5.7435V33.5363H19.7968C23.2718 33.5363 25.7923 32.772 25.7923 30.6008C25.7923 28.7658 24.303 27.726 21.5914 27.726Z" fill="black"/>
</svg>
